<svg width="44" height="44" viewBox="0 0 44 44" fill="none" xmlns="http://www.w3.org/2000/svg">
<rect width="44" height="44" rx="5" fill="#FFF4F2"/>
<path d="M22.006 28.2348C22.006 28.5871 21.8024 28.9072 21.4839 29.0566C21.3607 29.1148 21.2287 29.143 21.0976 29.143C20.8899 29.143 20.6842 29.0716 20.518 28.9338L15.5527 24.8194H12.9082C12.4067 24.8198 12 24.4129 12 23.9114V20.2928C12 19.7911 12.4067 19.3844 12.9082 19.3844H15.553L20.5182 15.2699C20.7895 15.0451 21.1657 14.9972 21.4841 15.1476C21.8024 15.297 22.0062 15.6173 22.0062 15.9694L22.006 28.2348ZM25.4964 26.8156C25.4743 26.8171 25.453 26.8179 25.4311 26.8179C25.1912 26.8179 24.9599 26.7231 24.789 26.552L24.6675 26.4301C24.3489 26.1122 24.3115 25.6085 24.5798 25.2469C25.26 24.3299 25.619 23.2428 25.619 22.1024C25.619 20.8758 25.2114 19.7253 24.4401 18.7752C24.1464 18.414 24.1735 17.8895 24.5026 17.5606L24.6239 17.4392C24.8053 17.2577 25.0484 17.1589 25.3115 17.1745C25.5678 17.1874 25.807 17.308 25.9696 17.5067C27.0394 18.8158 27.6046 20.4053 27.6046 22.1026C27.6046 23.6835 27.1048 25.1883 26.1589 26.4535C26.0009 26.6644 25.7593 26.7969 25.4964 26.8156ZM29.2514 29.6224C29.0872 29.8165 28.8497 29.933 28.5954 29.9437C28.5829 29.9442 28.5702 29.9446 28.5573 29.9446C28.3168 29.9446 28.0859 29.8496 27.915 29.6787L27.7957 29.5594C27.4623 29.2262 27.4397 28.6933 27.7428 28.3326C29.2076 26.5905 30.0146 24.3781 30.0146 22.1024C30.0146 19.7354 29.1506 17.4568 27.5824 15.6863C27.2645 15.3269 27.2806 14.7828 27.619 14.4432L27.7381 14.3239C27.9148 14.1463 28.1444 14.0485 28.4077 14.0569C28.6577 14.064 28.8942 14.1745 29.0603 14.3615C30.9559 16.4957 32 19.2451 32 22.1024C32.0004 24.8516 31.0243 27.5224 29.2514 29.6224Z" fill="#FF6652"/>
</svg>
