<svg width="50" height="50" viewBox="0 0 50 50" fill="none" xmlns="http://www.w3.org/2000/svg">
<circle cx="25" cy="25" r="25" fill="#FF6652"/>
<g clip-path="url(#clip0_85_7)">
<path d="M31.213 27.5136C30.5452 26.8458 29.7906 26.3084 28.9925 25.9012C28.8661 25.8388 28.7599 25.742 28.6859 25.622C28.612 25.502 28.5734 25.3636 28.5745 25.2226L28.7916 23.3007C26.5224 22.4973 23.6993 22.443 21.3432 23.2682L21.5006 25.228C21.4952 25.5266 21.3269 25.7818 21.0771 25.9121C20.2737 26.3138 19.5245 26.8567 18.8567 27.5245C18.5635 27.8176 18.0749 27.8176 17.7818 27.5245L15.9034 25.646C15.6102 25.3529 15.3876 24.8697 15.7948 24.4625C20.8383 19.4191 29.226 19.4245 34.264 24.4625C34.6495 24.848 34.4595 25.342 34.1609 25.6406L32.2879 27.5136C31.9947 27.8068 31.5061 27.8068 31.213 27.5136Z" fill="white"/>
</g>
<defs>
<clipPath id="clip0_85_7">
<rect width="18.4264" height="18.4264" fill="white" transform="matrix(0.707107 0.707107 0.707107 -0.707107 12 25)"/>
</clipPath>
</defs>
</svg>
