<svg width="44" height="44" viewBox="0 0 44 44" fill="none" xmlns="http://www.w3.org/2000/svg">
<rect width="44" height="44" rx="5" fill="#F8F2FF"/>
<g clip-path="url(#clip0_86_16)">
<path d="M23.1373 17.9417C22.6908 18.3872 21.9672 18.3872 21.5208 17.9417C21.0745 17.4962 21.0745 16.7738 21.5208 16.3283C21.9672 15.8828 22.6908 15.8828 23.1373 16.3283C23.5836 16.7738 23.5836 17.4962 23.1373 17.9417Z" fill="#9C4DF4"/>
<path d="M24.6986 19.67C24.5593 19.67 24.4201 19.6169 24.3141 19.5105C24.102 19.2982 24.1024 18.9542 24.3147 18.7423C24.745 18.3128 24.9819 17.7419 24.9819 17.1348C24.9819 16.5277 24.745 15.9568 24.3147 15.5274C24.1024 15.3153 24.102 14.9715 24.3141 14.759C24.526 14.5467 24.87 14.5463 25.0823 14.7583C25.7183 15.3931 26.0684 16.237 26.0684 17.1348C26.0684 18.0325 25.7183 18.8766 25.0823 19.5113C24.9763 19.6172 24.8374 19.67 24.6986 19.67Z" fill="#9C4DF4"/>
<path d="M25.9271 21.2696C25.7878 21.2696 25.6486 21.2165 25.5426 21.1102C25.3305 20.8977 25.331 20.5539 25.5433 20.3418C26.4016 19.4852 26.8744 18.3463 26.8744 17.1349C26.8744 15.9235 26.4016 14.7847 25.5433 13.928C25.331 13.716 25.3305 13.3721 25.5426 13.1597C25.7546 12.9473 26.0985 12.9469 26.3108 13.159C27.3748 14.2209 27.9609 15.633 27.9608 17.1349C27.9608 18.6369 27.3748 20.049 26.3108 21.111C26.2048 21.2168 26.0659 21.2696 25.9271 21.2696Z" fill="#9C4DF4"/>
<path d="M19.9564 19.67C19.8176 19.67 19.6787 19.6171 19.5726 19.5112C18.9366 18.8765 18.5864 18.0325 18.5864 17.1347C18.5864 16.2369 18.9366 15.393 19.5726 14.7583C19.7849 14.5462 20.1289 14.5465 20.3408 14.759C20.5528 14.9713 20.5524 15.3153 20.3401 15.5273C19.9099 15.9567 19.673 16.5276 19.673 17.1347C19.673 17.7419 19.9099 18.3128 20.3401 18.7422C20.5524 18.9541 20.5528 19.2981 20.3408 19.5104C20.2348 19.6167 20.0955 19.67 19.9564 19.67Z" fill="#9C4DF4"/>
<path d="M18.7277 21.2701C18.5887 21.2701 18.4499 21.2173 18.3439 21.1114C17.2798 20.0494 16.6938 18.6374 16.6938 17.1354C16.6938 15.6333 17.2798 14.2213 18.3439 13.1593C18.5562 12.9474 18.9002 12.9477 19.1121 13.1602C19.3241 13.3725 19.3237 13.7163 19.1114 13.9284C18.2531 14.785 17.7803 15.9239 17.7803 17.1353C17.7803 18.3467 18.2531 19.4857 19.1114 20.3423C19.3237 20.5544 19.3241 20.8982 19.1121 21.1107C19.0061 21.217 18.8668 21.2701 18.7277 21.2701Z" fill="#9C4DF4"/>
<path d="M29.4876 22.2089H15.1673C14.4654 22.2089 13.8965 22.7778 13.8965 23.4796V29.7293C13.8965 30.4312 14.4654 31.0001 15.1673 31.0001H29.4874C30.1893 31.0001 30.7583 30.4312 30.7583 29.7293V23.4796C30.7583 22.7778 30.1893 22.2089 29.4876 22.2089V22.2089ZM18.0755 29.3696H16.074C15.774 29.3696 15.5308 29.1264 15.5308 28.8263V24.3826C15.5308 24.0827 15.774 23.8394 16.074 23.8394C16.374 23.8394 16.6172 24.0826 16.6172 24.3826V28.2831H18.0755C18.3756 28.2831 18.6188 28.5263 18.6188 28.8263C18.6188 29.1264 18.3756 29.3696 18.0755 29.3696ZM20.3019 28.8263C20.3019 29.1264 20.0587 29.3696 19.7586 29.3696C19.4586 29.3696 19.2154 29.1264 19.2154 28.8263V24.3826C19.2154 24.0827 19.4586 23.8394 19.7586 23.8394C20.0587 23.8394 20.3019 24.0826 20.3019 24.3826V28.8263ZM24.8728 24.5397L23.5312 28.9833C23.5311 28.9837 23.5309 28.9841 23.5308 28.9845C23.3851 29.4818 22.6423 29.4696 22.4915 28.9845C22.4913 28.9841 22.4912 28.9837 22.4911 28.9833L21.1495 24.5397C21.0629 24.2525 21.2253 23.9494 21.5126 23.8626C21.7996 23.7759 22.103 23.9384 22.1896 24.2257L23.0111 26.9466L23.8326 24.2257C23.9194 23.9384 24.2225 23.7758 24.5098 23.8626C24.797 23.9494 24.9596 24.2525 24.8728 24.5397V24.5397ZM28.2149 25.7815C28.515 25.7815 28.7582 26.0247 28.7582 26.3247C28.7582 26.6247 28.515 26.868 28.2149 26.868H26.6733V28.2831H28.5076C28.8076 28.2831 29.0509 28.5263 29.0509 28.8263C29.0509 29.1264 28.8076 29.3696 28.5076 29.3696H26.13C25.8299 29.3696 25.5867 29.1264 25.5867 28.8263V24.3826C25.5867 24.0827 25.8299 23.8394 26.13 23.8394H28.5808C28.8807 23.8394 29.1241 24.0826 29.1241 24.3826C29.1241 24.6827 28.8807 24.9259 28.5808 24.9259H26.6731V25.7815H28.2149Z" fill="#9C4DF4"/>
</g>
<defs>
<clipPath id="clip0_86_16">
<rect width="18" height="18" fill="white" transform="translate(13.334 13)"/>
</clipPath>
</defs>
</svg>
