<svg width="44" height="44" viewBox="0 0 44 44" fill="none" xmlns="http://www.w3.org/2000/svg">
<rect width="44" height="44" rx="5" fill="#E5FFF3"/>
<g clip-path="url(#clip0_86_27)">
<path d="M21.667 13C16.6964 13 12.667 17.0294 12.667 22C12.667 26.9705 16.6964 31 21.667 31C26.6375 31 30.667 26.9705 30.667 22C30.6617 17.0317 26.6353 13.0053 21.667 13ZM25.4572 22.2867C25.3949 22.4117 25.2936 22.513 25.1686 22.5753V22.5786L20.0258 25.15C19.7082 25.3087 19.3221 25.1799 19.1633 24.8623C19.1182 24.772 19.095 24.6723 19.0955 24.5714V19.4286C19.0954 19.0735 19.383 18.7856 19.7381 18.7854C19.838 18.7854 19.9365 18.8086 20.0258 18.8532L25.1686 21.4246C25.4864 21.583 25.6156 21.969 25.4572 22.2867Z" fill="#00C968"/>
</g>
<defs>
<clipPath id="clip0_86_27">
<rect width="18" height="18" fill="white" transform="translate(12.667 13)"/>
</clipPath>
</defs>
</svg>
